<mxfile host="app.diagrams.net" agent="Mozilla/5.0 (Windows NT 10.0; Win64; x64) AppleWebKit/537.36 (KHTML, like Gecko) Chrome/135.0.0.0 Safari/537.36" version="26.2.9">
  <diagram name="Sayfa -1" id="IdhkXDMyeTe5kVPvRwIX">
    <mxGraphModel dx="2255" dy="785" grid="1" gridSize="10" guides="1" tooltips="1" connect="1" arrows="1" fold="1" page="1" pageScale="1" pageWidth="827" pageHeight="1169" math="0" shadow="0">
      <root>
        <mxCell id="0" />
        <mxCell id="1" parent="0" />
        <mxCell id="m_xGNnF6uDj1g4Gdo5ad-1" value="Admin&amp;nbsp;" style="rounded=0;whiteSpace=wrap;html=1;" parent="1" vertex="1">
          <mxGeometry x="180" y="370" width="120" height="60" as="geometry" />
        </mxCell>
        <mxCell id="m_xGNnF6uDj1g4Gdo5ad-2" value="Yorumlar" style="rounded=0;whiteSpace=wrap;html=1;" parent="1" vertex="1">
          <mxGeometry x="-460" y="160" width="120" height="60" as="geometry" />
        </mxCell>
        <mxCell id="m_xGNnF6uDj1g4Gdo5ad-3" value="Bloglar" style="rounded=0;whiteSpace=wrap;html=1;" parent="1" vertex="1">
          <mxGeometry x="-140" y="160" width="120" height="60" as="geometry" />
        </mxCell>
        <mxCell id="m_xGNnF6uDj1g4Gdo5ad-7" value="Blogum" style="rounded=0;whiteSpace=wrap;html=1;" parent="1" vertex="1">
          <mxGeometry x="-470" y="350" width="200" height="90" as="geometry" />
        </mxCell>
        <mxCell id="m_xGNnF6uDj1g4Gdo5ad-17" value="İletişim" style="rounded=0;whiteSpace=wrap;html=1;" parent="1" vertex="1">
          <mxGeometry x="-140" y="580" width="120" height="60" as="geometry" />
        </mxCell>
        <mxCell id="m_xGNnF6uDj1g4Gdo5ad-20" value="Anasayfa" style="rhombus;whiteSpace=wrap;html=1;" parent="1" vertex="1">
          <mxGeometry x="-120" y="360" width="80" height="80" as="geometry" />
        </mxCell>
        <mxCell id="m_xGNnF6uDj1g4Gdo5ad-24" value="" style="endArrow=none;html=1;rounded=0;" parent="1" source="m_xGNnF6uDj1g4Gdo5ad-26" edge="1" target="m_xGNnF6uDj1g4Gdo5ad-7">
          <mxGeometry width="50" height="50" relative="1" as="geometry">
            <mxPoint x="-390" y="500" as="sourcePoint" />
            <mxPoint x="-460" y="350" as="targetPoint" />
            <Array as="points" />
          </mxGeometry>
        </mxCell>
        <mxCell id="m_xGNnF6uDj1g4Gdo5ad-26" value="Yeni Blog Ekle" style="rounded=0;whiteSpace=wrap;html=1;" parent="1" vertex="1">
          <mxGeometry x="-610" y="555" width="120" height="60" as="geometry" />
        </mxCell>
        <mxCell id="m_xGNnF6uDj1g4Gdo5ad-29" value="Blog Başlığı" style="ellipse;whiteSpace=wrap;html=1;" parent="1" vertex="1">
          <mxGeometry x="-660" y="310" width="120" height="40" as="geometry" />
        </mxCell>
        <mxCell id="m_xGNnF6uDj1g4Gdo5ad-30" value="" style="endArrow=none;html=1;rounded=0;" parent="1" source="m_xGNnF6uDj1g4Gdo5ad-29" edge="1">
          <mxGeometry width="50" height="50" relative="1" as="geometry">
            <mxPoint x="-520" y="420" as="sourcePoint" />
            <mxPoint x="-470" y="370" as="targetPoint" />
          </mxGeometry>
        </mxCell>
        <mxCell id="m_xGNnF6uDj1g4Gdo5ad-31" value="Acıklama" style="ellipse;whiteSpace=wrap;html=1;" parent="1" vertex="1">
          <mxGeometry x="-680" y="360" width="125" height="40" as="geometry" />
        </mxCell>
        <mxCell id="m_xGNnF6uDj1g4Gdo5ad-33" value="Resim&amp;nbsp;" style="ellipse;whiteSpace=wrap;html=1;" parent="1" vertex="1">
          <mxGeometry x="-680" y="410" width="130" height="40" as="geometry" />
        </mxCell>
        <mxCell id="0UvnZyFb8oUxnmahLqyt-1" value="" style="endArrow=none;html=1;rounded=0;exitX=1;exitY=0.5;exitDx=0;exitDy=0;" parent="1" source="m_xGNnF6uDj1g4Gdo5ad-31" edge="1">
          <mxGeometry width="50" height="50" relative="1" as="geometry">
            <mxPoint x="-520" y="440" as="sourcePoint" />
            <mxPoint x="-470" y="390" as="targetPoint" />
          </mxGeometry>
        </mxCell>
        <mxCell id="0UvnZyFb8oUxnmahLqyt-3" value="" style="endArrow=none;html=1;rounded=0;exitX=1;exitY=0.5;exitDx=0;exitDy=0;entryX=0;entryY=0.75;entryDx=0;entryDy=0;" parent="1" source="m_xGNnF6uDj1g4Gdo5ad-33" target="m_xGNnF6uDj1g4Gdo5ad-7" edge="1">
          <mxGeometry width="50" height="50" relative="1" as="geometry">
            <mxPoint x="-530" y="460" as="sourcePoint" />
            <mxPoint x="-480" y="410" as="targetPoint" />
          </mxGeometry>
        </mxCell>
        <mxCell id="wYC-VRTO9Pugz2cMBFK1-2" value="" style="endArrow=none;html=1;rounded=0;exitX=0.98;exitY=0.578;exitDx=0;exitDy=0;exitPerimeter=0;" edge="1" parent="1" source="m_xGNnF6uDj1g4Gdo5ad-7">
          <mxGeometry width="50" height="50" relative="1" as="geometry">
            <mxPoint x="-170" y="450" as="sourcePoint" />
            <mxPoint x="-120" y="400" as="targetPoint" />
          </mxGeometry>
        </mxCell>
        <mxCell id="wYC-VRTO9Pugz2cMBFK1-4" value="" style="endArrow=none;html=1;rounded=0;entryX=0.5;entryY=1;entryDx=0;entryDy=0;" edge="1" parent="1" target="m_xGNnF6uDj1g4Gdo5ad-3">
          <mxGeometry width="50" height="50" relative="1" as="geometry">
            <mxPoint x="-80.5" y="360" as="sourcePoint" />
            <mxPoint x="-80.5" y="230" as="targetPoint" />
          </mxGeometry>
        </mxCell>
        <mxCell id="wYC-VRTO9Pugz2cMBFK1-7" value="" style="endArrow=none;html=1;rounded=0;entryX=0;entryY=0;entryDx=0;entryDy=0;" edge="1" parent="1" target="m_xGNnF6uDj1g4Gdo5ad-15">
          <mxGeometry width="50" height="50" relative="1" as="geometry">
            <mxPoint x="-40" y="400" as="sourcePoint" />
            <mxPoint x="10" y="350" as="targetPoint" />
          </mxGeometry>
        </mxCell>
        <mxCell id="wYC-VRTO9Pugz2cMBFK1-8" value="" style="endArrow=none;html=1;rounded=0;exitX=1;exitY=0.5;exitDx=0;exitDy=0;" edge="1" parent="1" source="m_xGNnF6uDj1g4Gdo5ad-20">
          <mxGeometry width="50" height="50" relative="1" as="geometry">
            <mxPoint x="130" y="450" as="sourcePoint" />
            <mxPoint x="180" y="400" as="targetPoint" />
          </mxGeometry>
        </mxCell>
        <mxCell id="wYC-VRTO9Pugz2cMBFK1-17" value="" style="endArrow=none;html=1;rounded=0;exitX=0.35;exitY=0.111;exitDx=0;exitDy=0;exitPerimeter=0;" edge="1" parent="1" source="m_xGNnF6uDj1g4Gdo5ad-7">
          <mxGeometry width="50" height="50" relative="1" as="geometry">
            <mxPoint x="-450" y="270" as="sourcePoint" />
            <mxPoint x="-400" y="220" as="targetPoint" />
          </mxGeometry>
        </mxCell>
        <mxCell id="wYC-VRTO9Pugz2cMBFK1-18" value="&lt;div style=&quot;line-height: 160%;&quot;&gt;&lt;b&gt;N&lt;/b&gt;&lt;div&gt;&lt;b&gt;:&lt;/b&gt;&lt;/div&gt;&lt;div&gt;&lt;b&gt;1&lt;/b&gt;&lt;/div&gt;&lt;/div&gt;" style="text;strokeColor=none;align=center;fillColor=none;html=1;verticalAlign=middle;whiteSpace=wrap;rounded=0;fontFamily=Times New Roman;" vertex="1" parent="1">
          <mxGeometry x="-410" y="250" width="60" height="60" as="geometry" />
        </mxCell>
        <mxCell id="wYC-VRTO9Pugz2cMBFK1-19" value="" style="endArrow=none;html=1;rounded=0;exitX=0.5;exitY=0;exitDx=0;exitDy=0;" edge="1" parent="1" source="m_xGNnF6uDj1g4Gdo5ad-17">
          <mxGeometry width="50" height="50" relative="1" as="geometry">
            <mxPoint x="-130" y="490" as="sourcePoint" />
            <mxPoint x="-80" y="440" as="targetPoint" />
          </mxGeometry>
        </mxCell>
        <mxCell id="wYC-VRTO9Pugz2cMBFK1-20" value="&lt;div style=&quot;line-height: 160%;&quot;&gt;&lt;b&gt;N&lt;/b&gt;&lt;div&gt;&lt;b&gt;:&lt;/b&gt;&lt;/div&gt;&lt;div&gt;&lt;b&gt;1&lt;/b&gt;&lt;/div&gt;&lt;/div&gt;" style="text;strokeColor=none;align=center;fillColor=none;html=1;verticalAlign=middle;whiteSpace=wrap;rounded=0;fontFamily=Times New Roman;" vertex="1" parent="1">
          <mxGeometry x="-100" y="260" width="60" height="60" as="geometry" />
        </mxCell>
        <mxCell id="wYC-VRTO9Pugz2cMBFK1-21" value="&lt;div style=&quot;line-height: 140%;&quot;&gt;&lt;font style=&quot;font-size: 14px; line-height: 140%;&quot;&gt;&lt;b&gt;1&lt;/b&gt;&lt;/font&gt;&lt;div&gt;&lt;font style=&quot;font-size: 14px; line-height: 140%;&quot;&gt;&lt;b&gt;:&lt;/b&gt;&lt;/font&gt;&lt;/div&gt;&lt;div&gt;&lt;font style=&quot;font-size: 14px; line-height: 140%;&quot;&gt;&lt;b&gt;1&lt;/b&gt;&lt;/font&gt;&lt;/div&gt;&lt;/div&gt;" style="text;strokeColor=none;align=center;fillColor=none;html=1;verticalAlign=middle;whiteSpace=wrap;rounded=0;" vertex="1" parent="1">
          <mxGeometry x="-120" y="470" width="60" height="50" as="geometry" />
        </mxCell>
        <mxCell id="wYC-VRTO9Pugz2cMBFK1-25" value="Aciklama" style="ellipse;whiteSpace=wrap;html=1;" vertex="1" parent="1">
          <mxGeometry x="420" y="580" width="100" height="40" as="geometry" />
        </mxCell>
        <mxCell id="wYC-VRTO9Pugz2cMBFK1-26" value="FotoğrafUrl" style="ellipse;whiteSpace=wrap;html=1;" vertex="1" parent="1">
          <mxGeometry x="400" y="520" width="120" height="40" as="geometry" />
        </mxCell>
        <mxCell id="wYC-VRTO9Pugz2cMBFK1-27" value="" style="endArrow=none;html=1;rounded=0;exitX=1;exitY=0.5;exitDx=0;exitDy=0;entryX=0.042;entryY=0.775;entryDx=0;entryDy=0;entryPerimeter=0;" edge="1" parent="1" source="m_xGNnF6uDj1g4Gdo5ad-15" target="wYC-VRTO9Pugz2cMBFK1-26">
          <mxGeometry width="50" height="50" relative="1" as="geometry">
            <mxPoint x="295" y="600" as="sourcePoint" />
            <mxPoint x="330" y="560" as="targetPoint" />
          </mxGeometry>
        </mxCell>
        <mxCell id="wYC-VRTO9Pugz2cMBFK1-30" value="KullaniciAdi" style="ellipse;whiteSpace=wrap;html=1;" vertex="1" parent="1">
          <mxGeometry x="-620" y="80" width="110" height="40" as="geometry" />
        </mxCell>
        <mxCell id="wYC-VRTO9Pugz2cMBFK1-31" value="Mail" style="ellipse;whiteSpace=wrap;html=1;" vertex="1" parent="1">
          <mxGeometry x="-490" y="80" width="80" height="40" as="geometry" />
        </mxCell>
        <mxCell id="wYC-VRTO9Pugz2cMBFK1-32" value="Yorum" style="ellipse;whiteSpace=wrap;html=1;" vertex="1" parent="1">
          <mxGeometry x="-380" y="80" width="100" height="40" as="geometry" />
        </mxCell>
        <mxCell id="wYC-VRTO9Pugz2cMBFK1-33" value="" style="endArrow=none;html=1;rounded=0;exitX=0;exitY=0;exitDx=0;exitDy=0;" edge="1" parent="1" source="m_xGNnF6uDj1g4Gdo5ad-2">
          <mxGeometry width="50" height="50" relative="1" as="geometry">
            <mxPoint x="-590" y="170" as="sourcePoint" />
            <mxPoint x="-540" y="120" as="targetPoint" />
          </mxGeometry>
        </mxCell>
        <mxCell id="wYC-VRTO9Pugz2cMBFK1-35" value="" style="endArrow=none;html=1;rounded=0;exitX=0.167;exitY=0;exitDx=0;exitDy=0;exitPerimeter=0;" edge="1" parent="1" source="m_xGNnF6uDj1g4Gdo5ad-2">
          <mxGeometry width="50" height="50" relative="1" as="geometry">
            <mxPoint x="-440" y="150" as="sourcePoint" />
            <mxPoint x="-440" y="120" as="targetPoint" />
          </mxGeometry>
        </mxCell>
        <mxCell id="wYC-VRTO9Pugz2cMBFK1-36" value="" style="endArrow=none;html=1;rounded=0;exitX=0.617;exitY=-0.017;exitDx=0;exitDy=0;exitPerimeter=0;" edge="1" parent="1" source="m_xGNnF6uDj1g4Gdo5ad-2">
          <mxGeometry width="50" height="50" relative="1" as="geometry">
            <mxPoint x="-390" y="170" as="sourcePoint" />
            <mxPoint x="-340" y="120" as="targetPoint" />
          </mxGeometry>
        </mxCell>
        <mxCell id="wYC-VRTO9Pugz2cMBFK1-37" value="BlogID" style="ellipse;whiteSpace=wrap;html=1;" vertex="1" parent="1">
          <mxGeometry x="-650" y="140" width="120" height="40" as="geometry" />
        </mxCell>
        <mxCell id="wYC-VRTO9Pugz2cMBFK1-38" value="" style="endArrow=none;html=1;rounded=0;exitX=1;exitY=0.5;exitDx=0;exitDy=0;" edge="1" parent="1" source="wYC-VRTO9Pugz2cMBFK1-37">
          <mxGeometry width="50" height="50" relative="1" as="geometry">
            <mxPoint x="-510" y="230" as="sourcePoint" />
            <mxPoint x="-460" y="180" as="targetPoint" />
          </mxGeometry>
        </mxCell>
        <mxCell id="wYC-VRTO9Pugz2cMBFK1-41" value="" style="shape=link;html=1;rounded=0;" edge="1" parent="1">
          <mxGeometry width="100" relative="1" as="geometry">
            <mxPoint x="-640" y="170" as="sourcePoint" />
            <mxPoint x="-540" y="170" as="targetPoint" />
          </mxGeometry>
        </mxCell>
        <mxCell id="wYC-VRTO9Pugz2cMBFK1-42" value="ID" style="ellipse;whiteSpace=wrap;html=1;" vertex="1" parent="1">
          <mxGeometry x="430" y="640" width="100" height="40" as="geometry" />
        </mxCell>
        <mxCell id="wYC-VRTO9Pugz2cMBFK1-44" value="" style="endArrow=none;html=1;rounded=0;exitX=0.25;exitY=0.05;exitDx=0;exitDy=0;exitPerimeter=0;" edge="1" parent="1" source="m_xGNnF6uDj1g4Gdo5ad-15">
          <mxGeometry width="50" height="50" relative="1" as="geometry">
            <mxPoint x="200" y="660" as="sourcePoint" />
            <mxPoint x="250" y="610" as="targetPoint" />
          </mxGeometry>
        </mxCell>
        <mxCell id="wYC-VRTO9Pugz2cMBFK1-45" value="" style="endArrow=none;html=1;rounded=0;" edge="1" parent="1" source="wYC-VRTO9Pugz2cMBFK1-25">
          <mxGeometry width="50" height="50" relative="1" as="geometry">
            <mxPoint x="220" y="660" as="sourcePoint" />
            <mxPoint x="260" y="600" as="targetPoint" />
            <Array as="points">
              <mxPoint x="260" y="600" />
              <mxPoint x="250" y="600" />
            </Array>
          </mxGeometry>
        </mxCell>
        <mxCell id="wYC-VRTO9Pugz2cMBFK1-47" value="" style="endArrow=none;html=1;rounded=0;" edge="1" parent="1">
          <mxGeometry width="50" height="50" relative="1" as="geometry">
            <mxPoint x="450" y="669" as="sourcePoint" />
            <mxPoint x="450" y="669" as="targetPoint" />
            <Array as="points">
              <mxPoint x="520" y="669" />
            </Array>
          </mxGeometry>
        </mxCell>
        <mxCell id="wYC-VRTO9Pugz2cMBFK1-48" value="ID" style="ellipse;whiteSpace=wrap;html=1;" vertex="1" parent="1">
          <mxGeometry x="-670" y="465" width="120" height="40" as="geometry" />
        </mxCell>
        <mxCell id="wYC-VRTO9Pugz2cMBFK1-51" value="" style="endArrow=none;html=1;rounded=0;exitX=0.067;exitY=0.65;exitDx=0;exitDy=0;exitPerimeter=0;" edge="1" parent="1">
          <mxGeometry width="50" height="50" relative="1" as="geometry">
            <mxPoint x="-655.98" y="495.5" as="sourcePoint" />
            <mxPoint x="-564.02" y="494.5" as="targetPoint" />
          </mxGeometry>
        </mxCell>
        <mxCell id="wYC-VRTO9Pugz2cMBFK1-53" value="AdSoyad" style="ellipse;whiteSpace=wrap;html=1;" vertex="1" parent="1">
          <mxGeometry x="-290" y="590" width="120" height="40" as="geometry" />
        </mxCell>
        <mxCell id="wYC-VRTO9Pugz2cMBFK1-56" value="Mail" style="ellipse;whiteSpace=wrap;html=1;" vertex="1" parent="1">
          <mxGeometry x="-300" y="660" width="120" height="40" as="geometry" />
        </mxCell>
        <mxCell id="wYC-VRTO9Pugz2cMBFK1-57" value="Konu" style="ellipse;whiteSpace=wrap;html=1;" vertex="1" parent="1">
          <mxGeometry x="-165" y="670" width="150" height="40" as="geometry" />
        </mxCell>
        <mxCell id="wYC-VRTO9Pugz2cMBFK1-58" value="Mesaj" style="ellipse;whiteSpace=wrap;html=1;" vertex="1" parent="1">
          <mxGeometry x="-10" y="650" width="140" height="40" as="geometry" />
        </mxCell>
        <mxCell id="wYC-VRTO9Pugz2cMBFK1-61" value="" style="endArrow=none;html=1;rounded=0;exitX=0.25;exitY=0.05;exitDx=0;exitDy=0;exitPerimeter=0;" edge="1" parent="1" source="wYC-VRTO9Pugz2cMBFK1-42" target="m_xGNnF6uDj1g4Gdo5ad-15">
          <mxGeometry width="50" height="50" relative="1" as="geometry">
            <mxPoint x="455" y="642" as="sourcePoint" />
            <mxPoint x="250" y="610" as="targetPoint" />
          </mxGeometry>
        </mxCell>
        <mxCell id="m_xGNnF6uDj1g4Gdo5ad-15" value="Hakkımızda" style="rounded=0;whiteSpace=wrap;html=1;" parent="1" vertex="1">
          <mxGeometry x="180" y="560" width="120" height="60" as="geometry" />
        </mxCell>
        <mxCell id="wYC-VRTO9Pugz2cMBFK1-62" value="ID" style="ellipse;whiteSpace=wrap;html=1;" vertex="1" parent="1">
          <mxGeometry x="30" y="585" width="120" height="40" as="geometry" />
        </mxCell>
        <mxCell id="wYC-VRTO9Pugz2cMBFK1-63" value="" style="endArrow=none;html=1;rounded=0;" edge="1" parent="1" source="wYC-VRTO9Pugz2cMBFK1-53">
          <mxGeometry width="50" height="50" relative="1" as="geometry">
            <mxPoint x="-190" y="660" as="sourcePoint" />
            <mxPoint x="-140" y="610" as="targetPoint" />
          </mxGeometry>
        </mxCell>
        <mxCell id="wYC-VRTO9Pugz2cMBFK1-64" value="" style="endArrow=none;html=1;rounded=0;exitX=0.75;exitY=0;exitDx=0;exitDy=0;exitPerimeter=0;" edge="1" parent="1" source="wYC-VRTO9Pugz2cMBFK1-56">
          <mxGeometry width="50" height="50" relative="1" as="geometry">
            <mxPoint x="-190" y="690" as="sourcePoint" />
            <mxPoint x="-140" y="640" as="targetPoint" />
          </mxGeometry>
        </mxCell>
        <mxCell id="wYC-VRTO9Pugz2cMBFK1-65" value="" style="endArrow=none;html=1;rounded=0;" edge="1" parent="1">
          <mxGeometry width="50" height="50" relative="1" as="geometry">
            <mxPoint x="-80" y="670" as="sourcePoint" />
            <mxPoint x="-80" y="640" as="targetPoint" />
          </mxGeometry>
        </mxCell>
        <mxCell id="wYC-VRTO9Pugz2cMBFK1-66" value="" style="endArrow=none;html=1;rounded=0;" edge="1" parent="1" source="wYC-VRTO9Pugz2cMBFK1-58">
          <mxGeometry width="50" height="50" relative="1" as="geometry">
            <mxPoint x="-70" y="690" as="sourcePoint" />
            <mxPoint x="-20" y="640" as="targetPoint" />
          </mxGeometry>
        </mxCell>
        <mxCell id="wYC-VRTO9Pugz2cMBFK1-67" value="" style="endArrow=none;html=1;rounded=0;entryX=0.983;entryY=0.4;entryDx=0;entryDy=0;entryPerimeter=0;" edge="1" parent="1" source="wYC-VRTO9Pugz2cMBFK1-62" target="m_xGNnF6uDj1g4Gdo5ad-17">
          <mxGeometry width="50" height="50" relative="1" as="geometry">
            <mxPoint x="-50.710678118654755" y="650" as="sourcePoint" />
            <mxPoint x="-50.710678118654755" y="600" as="targetPoint" />
          </mxGeometry>
        </mxCell>
        <mxCell id="wYC-VRTO9Pugz2cMBFK1-69" value="" style="endArrow=none;html=1;rounded=0;exitX=0.25;exitY=0.875;exitDx=0;exitDy=0;exitPerimeter=0;entryX=1;entryY=1;entryDx=0;entryDy=0;" edge="1" parent="1">
          <mxGeometry width="50" height="50" relative="1" as="geometry">
            <mxPoint x="50" y="610.36" as="sourcePoint" />
            <mxPoint x="122.42640687119274" y="609.5021356237311" as="targetPoint" />
          </mxGeometry>
        </mxCell>
        <mxCell id="wYC-VRTO9Pugz2cMBFK1-70" value="Baslık" style="ellipse;whiteSpace=wrap;html=1;" vertex="1" parent="1">
          <mxGeometry x="-730" y="620" width="110" height="40" as="geometry" />
        </mxCell>
        <mxCell id="wYC-VRTO9Pugz2cMBFK1-71" value="Tarih" style="ellipse;whiteSpace=wrap;html=1;" vertex="1" parent="1">
          <mxGeometry x="-620" y="640" width="110" height="40" as="geometry" />
        </mxCell>
        <mxCell id="wYC-VRTO9Pugz2cMBFK1-72" value="Aciklama" style="ellipse;whiteSpace=wrap;html=1;" vertex="1" parent="1">
          <mxGeometry x="-460" y="575" width="110" height="40" as="geometry" />
        </mxCell>
        <mxCell id="wYC-VRTO9Pugz2cMBFK1-73" value="BlogImage" style="ellipse;whiteSpace=wrap;html=1;" vertex="1" parent="1">
          <mxGeometry x="-490" y="640" width="110" height="40" as="geometry" />
        </mxCell>
        <mxCell id="wYC-VRTO9Pugz2cMBFK1-74" value="" style="endArrow=none;html=1;rounded=0;exitX=0.5;exitY=0;exitDx=0;exitDy=0;" edge="1" parent="1" source="wYC-VRTO9Pugz2cMBFK1-70">
          <mxGeometry width="50" height="50" relative="1" as="geometry">
            <mxPoint x="-660" y="640" as="sourcePoint" />
            <mxPoint x="-610" y="590" as="targetPoint" />
          </mxGeometry>
        </mxCell>
        <mxCell id="wYC-VRTO9Pugz2cMBFK1-75" value="" style="endArrow=none;html=1;rounded=0;" edge="1" parent="1" source="wYC-VRTO9Pugz2cMBFK1-71">
          <mxGeometry width="50" height="50" relative="1" as="geometry">
            <mxPoint x="-610" y="660" as="sourcePoint" />
            <mxPoint x="-560" y="610" as="targetPoint" />
          </mxGeometry>
        </mxCell>
        <mxCell id="wYC-VRTO9Pugz2cMBFK1-77" value="" style="endArrow=none;html=1;rounded=0;" edge="1" parent="1" source="m_xGNnF6uDj1g4Gdo5ad-26">
          <mxGeometry width="50" height="50" relative="1" as="geometry">
            <mxPoint x="-510" y="640" as="sourcePoint" />
            <mxPoint x="-460" y="590" as="targetPoint" />
          </mxGeometry>
        </mxCell>
        <mxCell id="wYC-VRTO9Pugz2cMBFK1-78" value="" style="endArrow=none;html=1;rounded=0;" edge="1" parent="1" source="wYC-VRTO9Pugz2cMBFK1-73">
          <mxGeometry width="50" height="50" relative="1" as="geometry">
            <mxPoint x="-540" y="660" as="sourcePoint" />
            <mxPoint x="-490" y="610" as="targetPoint" />
            <Array as="points">
              <mxPoint x="-480" y="620" />
            </Array>
          </mxGeometry>
        </mxCell>
        <mxCell id="wYC-VRTO9Pugz2cMBFK1-79" value="&lt;div style=&quot;line-height: 140%;&quot;&gt;&lt;font style=&quot;font-size: 14px; line-height: 140%;&quot;&gt;&lt;b&gt;1&lt;/b&gt;&lt;/font&gt;&lt;div&gt;&lt;font style=&quot;font-size: 14px; line-height: 140%;&quot;&gt;&lt;b&gt;:&lt;/b&gt;&lt;/font&gt;&lt;/div&gt;&lt;div&gt;&lt;font style=&quot;font-size: 14px; line-height: 140%;&quot;&gt;&lt;b&gt;1&lt;/b&gt;&lt;/font&gt;&lt;/div&gt;&lt;/div&gt;" style="text;strokeColor=none;align=center;fillColor=none;html=1;verticalAlign=middle;whiteSpace=wrap;rounded=0;rotation=0;" vertex="1" parent="1">
          <mxGeometry x="-450" y="450" width="40" height="80" as="geometry" />
        </mxCell>
        <mxCell id="wYC-VRTO9Pugz2cMBFK1-80" value="1" style="text;strokeColor=none;align=left;fillColor=none;html=1;verticalAlign=middle;whiteSpace=wrap;rounded=0;fontSize=14;" vertex="1" parent="1">
          <mxGeometry x="60" y="450" width="60" height="30" as="geometry" />
        </mxCell>
        <mxCell id="wYC-VRTO9Pugz2cMBFK1-81" value="&lt;font style=&quot;font-size: 18px;&quot; face=&quot;Times New Roman&quot;&gt;:&lt;/font&gt;&lt;div&gt;&lt;/div&gt;" style="text;strokeColor=none;align=center;fillColor=none;html=1;verticalAlign=middle;whiteSpace=wrap;rounded=0;" vertex="1" parent="1">
          <mxGeometry x="50" y="460" width="60" height="30" as="geometry" />
        </mxCell>
        <mxCell id="wYC-VRTO9Pugz2cMBFK1-82" value="&lt;font style=&quot;font-size: 13px;&quot; face=&quot;Times New Roman&quot;&gt;&lt;b style=&quot;&quot;&gt;1&lt;/b&gt;&lt;/font&gt;" style="text;strokeColor=none;align=center;fillColor=none;html=1;verticalAlign=middle;whiteSpace=wrap;rounded=0;" vertex="1" parent="1">
          <mxGeometry x="70" y="470" width="60" height="30" as="geometry" />
        </mxCell>
        <mxCell id="wYC-VRTO9Pugz2cMBFK1-87" value="Blog Başlığı" style="ellipse;whiteSpace=wrap;html=1;" vertex="1" parent="1">
          <mxGeometry x="-140" y="50" width="120" height="40" as="geometry" />
        </mxCell>
        <mxCell id="wYC-VRTO9Pugz2cMBFK1-88" value="" style="endArrow=none;html=1;rounded=0;exitX=0.5;exitY=0;exitDx=0;exitDy=0;" edge="1" parent="1" source="m_xGNnF6uDj1g4Gdo5ad-3">
          <mxGeometry width="50" height="50" relative="1" as="geometry">
            <mxPoint x="-130" y="140" as="sourcePoint" />
            <mxPoint x="-80" y="90" as="targetPoint" />
          </mxGeometry>
        </mxCell>
      </root>
    </mxGraphModel>
  </diagram>
</mxfile>
